<svg width="264" height="26" viewBox="0 0 264 26" fill="none" xmlns="http://www.w3.org/2000/svg">
<path d="M44.3313 22.744V3.1564H52.9418C55.1976 3.1564 57.1715 3.57613 58.8634 4.4156C60.5754 5.23641 61.9048 6.38369 62.8514 7.85743C63.7981 9.33116 64.2714 11.0287 64.2714 12.9502C64.2714 14.8716 63.7981 16.5692 62.8514 18.043C61.9048 19.5167 60.5754 20.6733 58.8634 21.5128C57.1715 22.3336 55.1976 22.744 52.9418 22.744H44.3313ZM46.567 20.9531H52.8209C54.6941 20.9531 56.3155 20.6173 57.6851 19.9458C59.0749 19.2555 60.1525 18.3135 60.9179 17.1196C61.6832 15.907 62.0659 14.5172 62.0659 12.9502C62.0659 11.3645 61.6832 9.97474 60.9179 8.78083C60.1525 7.58692 59.0749 6.65419 57.6851 5.98261C56.3155 5.29238 54.6941 4.94726 52.8209 4.94726H46.567V20.9531ZM71.1152 22.9119C69.9268 22.9119 68.809 22.6694 67.7616 22.1843C66.7344 21.6993 65.9086 21.0091 65.2842 20.1136L66.5833 18.7145C67.1675 19.498 67.8422 20.095 68.6076 20.5054C69.373 20.9158 70.2189 21.121 71.1454 21.121C73.7638 21.121 75.073 19.6846 75.073 16.8117V4.94726H67.3387V3.1564H77.2785V16.7278C77.2785 18.7985 76.7548 20.3468 75.7075 21.3728C74.6803 22.3989 73.1495 22.9119 71.1152 22.9119ZM80.1586 22.744L89.8266 3.1564H92.0321L101.7 22.744H99.3434L90.461 4.35964H91.3674L82.485 22.744H80.1586ZM83.9654 17.5113L84.63 15.8324H96.9265L97.5911 17.5113H83.9654ZM105.199 22.744V3.1564H107.042L121.634 20.1696H120.667V3.1564H122.873V22.744H121.03L106.468 5.73077H107.434V22.744H105.199ZM139.051 22.9119C137.44 22.9119 135.949 22.6694 134.579 22.1843C133.23 21.6807 132.052 20.9811 131.045 20.0857C130.058 19.1902 129.282 18.1362 128.718 16.9237C128.174 15.7111 127.903 14.3866 127.903 12.9502C127.903 11.5138 128.174 10.1893 128.718 8.97671C129.282 7.76414 130.068 6.71015 131.075 5.81472C132.082 4.91928 133.26 4.22905 134.61 3.74403C135.979 3.24035 137.47 2.98851 139.081 2.98851C140.692 2.98851 142.163 3.22169 143.492 3.68806C144.842 4.15443 145.99 4.86332 146.936 5.81472L145.547 7.12988C144.66 6.30907 143.683 5.72144 142.616 5.367C141.548 5.01255 140.4 4.83534 139.172 4.83534C137.863 4.83534 136.654 5.04054 135.546 5.45094C134.459 5.8427 133.502 6.41167 132.676 7.15786C131.87 7.8854 131.236 8.74352 130.773 9.73223C130.329 10.7023 130.108 11.7749 130.108 12.9502C130.108 14.1068 130.329 15.1794 130.773 16.1681C131.236 17.1569 131.87 18.0243 132.676 18.7705C133.502 19.498 134.459 20.067 135.546 20.4774C136.654 20.8692 137.852 21.065 139.142 21.065C140.35 21.065 141.488 20.8972 142.556 20.5614C143.643 20.2256 144.64 19.6566 145.547 18.8544L146.815 20.4214C145.808 21.2423 144.63 21.8672 143.281 22.2963C141.931 22.7067 140.521 22.9119 139.051 22.9119ZM144.67 20.1696V12.9502H146.815V20.4214L144.67 20.1696ZM162.388 22.9119C160.797 22.9119 159.316 22.6694 157.947 22.1843C156.597 21.6807 155.419 20.9811 154.412 20.0857C153.425 19.1716 152.649 18.1176 152.086 16.9237C151.542 15.7111 151.27 14.3866 151.27 12.9502C151.27 11.5138 151.542 10.1986 152.086 9.0047C152.649 7.79213 153.425 6.73813 154.412 5.84269C155.419 4.92861 156.597 4.22905 157.947 3.74403C159.296 3.24035 160.777 2.98851 162.388 2.98851C163.979 2.98851 165.449 3.24035 166.799 3.74403C168.148 4.22905 169.317 4.91928 170.304 5.81472C171.311 6.71015 172.086 7.76414 172.63 8.97671C173.194 10.1893 173.476 11.5138 173.476 12.9502C173.476 14.3866 173.194 15.7111 172.63 16.9237C172.086 18.1362 171.311 19.1902 170.304 20.0857C169.317 20.9811 168.148 21.6807 166.799 22.1843C165.449 22.6694 163.979 22.9119 162.388 22.9119ZM162.388 21.065C163.657 21.065 164.825 20.8692 165.893 20.4774C166.98 20.067 167.917 19.498 168.702 18.7705C169.508 18.0243 170.132 17.1662 170.575 16.1961C171.019 15.2074 171.24 14.1254 171.24 12.9502C171.24 11.7749 171.019 10.7023 170.575 9.73223C170.132 8.74352 169.508 7.8854 168.702 7.15786C167.917 6.41167 166.98 5.8427 165.893 5.45094C164.825 5.04054 163.657 4.83534 162.388 4.83534C161.119 4.83534 159.941 5.04054 158.853 5.45094C157.765 5.8427 156.819 6.41167 156.013 7.15786C155.228 7.8854 154.603 8.74352 154.14 9.73223C153.697 10.7023 153.475 11.7749 153.475 12.9502C153.475 14.1068 153.697 15.1794 154.14 16.1681C154.603 17.1569 155.228 18.0243 156.013 18.7705C156.819 19.498 157.765 20.067 158.853 20.4774C159.941 20.8692 161.119 21.065 162.388 21.065ZM184.318 22.9119C182.747 22.9119 181.236 22.6787 179.786 22.2123C178.356 21.7273 177.248 21.1117 176.463 20.3655L177.339 18.7705C178.084 19.4421 179.081 20.011 180.33 20.4774C181.599 20.9251 182.928 21.149 184.318 21.149C185.647 21.149 186.725 20.9997 187.551 20.7013C188.397 20.3841 189.011 19.9644 189.394 19.4421C189.797 18.9197 189.998 18.3414 189.998 17.7072C189.998 16.9423 189.756 16.3267 189.273 15.8603C188.81 15.394 188.195 15.0302 187.43 14.769C186.665 14.4892 185.819 14.2467 184.892 14.0415C183.966 13.8363 183.039 13.6218 182.113 13.3979C181.186 13.1554 180.33 12.8383 179.545 12.4465C178.779 12.0548 178.155 11.5418 177.671 10.9075C177.208 10.2546 176.976 9.40577 176.976 8.3611C176.976 7.39105 177.248 6.50495 177.792 5.70279C178.356 4.88198 179.212 4.22905 180.36 3.74403C181.508 3.24035 182.979 2.98851 184.771 2.98851C185.96 2.98851 187.138 3.14707 188.306 3.4642C189.474 3.76268 190.481 4.18242 191.327 4.72341L190.572 6.37436C189.666 5.81472 188.699 5.40431 187.672 5.14314C186.665 4.88197 185.688 4.75139 184.741 4.75139C183.472 4.75139 182.425 4.90995 181.599 5.22708C180.773 5.54422 180.159 5.97328 179.756 6.51427C179.373 7.0366 179.182 7.63356 179.182 8.30513C179.182 9.06998 179.414 9.6856 179.877 10.152C180.36 10.6183 180.985 10.9821 181.75 11.2433C182.536 11.5044 183.392 11.7376 184.318 11.9428C185.245 12.148 186.161 12.3719 187.067 12.6144C187.994 12.8569 188.84 13.1741 189.605 13.5658C190.391 13.9389 191.015 14.4426 191.478 15.0768C191.962 15.7111 192.204 16.5412 192.204 17.5673C192.204 18.5187 191.922 19.4048 191.358 20.2256C190.794 21.0277 189.928 21.6807 188.759 22.1843C187.611 22.6694 186.131 22.9119 184.318 22.9119ZM212.544 3.1564H214.749V22.744H212.544V3.1564ZM199.311 22.744H197.075V3.1564H199.311V22.744ZM212.755 13.7057H199.069V11.8869H212.755V13.7057ZM230.898 22.9119C229.306 22.9119 227.826 22.6694 226.456 22.1843C225.107 21.6807 223.929 20.9811 222.922 20.0857C221.935 19.1716 221.159 18.1176 220.595 16.9237C220.051 15.7111 219.779 14.3866 219.779 12.9502C219.779 11.5138 220.051 10.1986 220.595 9.0047C221.159 7.79213 221.935 6.73813 222.922 5.84269C223.929 4.92861 225.107 4.22905 226.456 3.74403C227.806 3.24035 229.286 2.98851 230.898 2.98851C232.489 2.98851 233.959 3.24035 235.309 3.74403C236.658 4.22905 237.826 4.91928 238.813 5.81472C239.82 6.71015 240.596 7.76414 241.14 8.97671C241.704 10.1893 241.986 11.5138 241.986 12.9502C241.986 14.3866 241.704 15.7111 241.14 16.9237C240.596 18.1362 239.82 19.1902 238.813 20.0857C237.826 20.9811 236.658 21.6807 235.309 22.1843C233.959 22.6694 232.489 22.9119 230.898 22.9119ZM230.898 21.065C232.167 21.065 233.335 20.8692 234.402 20.4774C235.49 20.067 236.427 19.498 237.212 18.7705C238.018 18.0243 238.642 17.1662 239.085 16.1961C239.528 15.2074 239.75 14.1254 239.75 12.9502C239.75 11.7749 239.528 10.7023 239.085 9.73223C238.642 8.74352 238.018 7.8854 237.212 7.15786C236.427 6.41167 235.49 5.8427 234.402 5.45094C233.335 5.04054 232.167 4.83534 230.898 4.83534C229.629 4.83534 228.45 5.04054 227.363 5.45094C226.275 5.8427 225.328 6.41167 224.523 7.15786C223.737 7.8854 223.113 8.74352 222.65 9.73223C222.207 10.7023 221.985 11.7749 221.985 12.9502C221.985 14.1068 222.207 15.1794 222.65 16.1681C223.113 17.1569 223.737 18.0243 224.523 18.7705C225.328 19.498 226.275 20.067 227.363 20.4774C228.45 20.8692 229.629 21.065 230.898 21.065ZM246.996 22.744V3.1564H254.911C256.704 3.1564 258.245 3.4269 259.534 3.96789C260.823 4.49022 261.81 5.25507 262.495 6.26244C263.2 7.25114 263.552 8.45438 263.552 9.87214C263.552 11.2526 263.2 12.4465 262.495 13.4539C261.81 14.4426 260.823 15.2074 259.534 15.7484C258.245 16.2894 256.704 16.5599 254.911 16.5599H248.235L249.232 15.5805V22.744H246.996ZM249.232 15.7484L248.235 14.7411H254.851C256.966 14.7411 258.567 14.3213 259.655 13.4819C260.763 12.6237 261.316 11.4205 261.316 9.87214C261.316 8.30514 260.763 7.09257 259.655 6.23444C258.567 5.37632 256.966 4.94726 254.851 4.94726H248.235L249.232 3.96789V15.7484Z" fill="black"/>
<path d="M0 3.96224C0 1.77395 1.94701 0 4.34873 0C5.50209 0 6.60822 0.417449 7.42376 1.16051L23.3265 15.6498C24.1421 16.3929 24.6002 17.4007 24.6002 18.4516C24.6002 20.6398 22.6532 22.4138 20.2515 22.4138H5.41205C2.42308 22.4138 0 20.2061 0 17.4828V3.96224Z" fill="#E40039" fill-opacity="0.58"/>
<path d="M28.0443 22.0378C28.0443 24.226 26.0973 26 23.6956 26C22.5422 26 21.4361 25.5826 20.6205 24.8395L4.71776 10.3501C3.90222 9.60709 3.44406 8.59927 3.44406 7.54843C3.44406 5.36017 5.39107 3.5862 7.79279 3.5862H22.6323C25.6212 3.5862 28.0443 5.79392 28.0443 8.51724V22.0378Z" fill="#00ABFE" fill-opacity="0.74"/>
</svg>
