<svg width="28" height="26" viewBox="0 0 28 26" fill="none" xmlns="http://www.w3.org/2000/svg">
<g clip-path="url(#clip0_302_242)">
<path d="M21.6755 26C21.4241 26 21.1715 25.9411 20.9382 25.8218L14.0001 22.2811L7.06232 25.8218C6.52503 26.0957 5.88663 26.0504 5.39601 25.7046C4.90539 25.3585 4.66428 24.7829 4.76663 24.2031L6.09165 16.7037L0.478912 11.3926C0.0446012 10.9815 -0.108776 10.3784 0.0785123 9.81822C0.266112 9.2583 0.755489 8.85753 1.35562 8.77297L9.11222 7.67911L12.5814 0.856187C12.8499 0.327979 13.3934 0 14.0001 0C14.0001 0 14.0001 0 14.0004 0C14.6068 0 15.1503 0.327979 15.4188 0.855885L18.8876 7.67881L26.6443 8.77297C27.2447 8.85753 27.7341 9.25799 27.9214 9.81822C28.109 10.3781 27.9553 10.9812 27.521 11.3926L21.9082 16.7037L23.2336 24.2031C23.3359 24.7832 23.0948 25.3588 22.6042 25.7046C22.3267 25.9006 22.0022 26 21.6755 26ZM2.19499 10.486L7.50192 15.5077C7.87463 15.8601 8.04512 16.3684 7.95676 16.8673L6.70392 23.9581L13.264 20.6101C13.7248 20.3748 14.2751 20.3748 14.7362 20.6101L21.296 23.9581L20.0431 16.867C19.9551 16.369 20.1252 15.8605 20.4983 15.5077L25.8052 10.486L18.4714 9.45128C17.9556 9.37819 17.5104 9.06411 17.2801 8.6108L14.0001 2.15965L10.7201 8.6111C10.4898 9.06411 10.0446 9.37819 9.52942 9.45128L2.19499 10.486ZM26.3758 10.5663H26.3792H26.3758ZM13.745 1.65771C13.745 1.65771 13.745 1.65801 13.7453 1.65832L13.745 1.65771C13.745 1.65801 13.745 1.65801 13.745 1.65771Z" fill="black"/>
</g>
<defs>
<clipPath id="clip0_302_242">
<rect width="28" height="26" fill="white"/>
</clipPath>
</defs>
</svg>
